<svg width="213" height="30" viewBox="0 0 213 30" fill="none" xmlns="http://www.w3.org/2000/svg">
<path fill-rule="evenodd" clip-rule="evenodd" d="M198.302 0H177V30H198.357C198.963 30 199.545 29.7604 199.982 29.3313L212.278 17.2634C213.214 16.3449 213.244 14.8246 212.345 13.8686L199.994 0.736539C199.551 0.26595 198.94 0 198.302 0ZM191.085 19.2C193.678 19.2 195.78 17.051 195.78 14.4C195.78 11.749 193.678 9.6 191.085 9.6C188.492 9.6 186.39 11.749 186.39 14.4C186.39 17.051 188.492 19.2 191.085 19.2Z" fill="#FF7647"/>
<path d="M0 3C0 1.34315 1.34315 0 3 0H177V30H3C1.34315 30 0 28.6569 0 27V3Z" fill="#FF7647"/>
</svg>
